<svg xmlns="http://www.w3.org/2000/svg" width="32" height="32" viewBox="0 0 32 32">
    <g fill="none" fill-rule="evenodd">
        <g>
            <g>
                <path fill="#1877F2" d="M16 0C7.164 0 0 7.165 0 16.001 0 24.837 7.164 32 16 32c8.837 0 16-7.163 16-15.999S24.836 0 16 0z" transform="translate(-83 -1484) translate(83 1484)"/>
                <path fill="#FFF" d="M20.235 15.933h-2.771v9.881h-4.106v-9.88h-1.953v-3.49h1.953v-2.26c0-1.618.768-4.143 4.145-4.143l3.04.012V9.44h-2.207c-.362 0-.872.18-.872.95v2.054h3.131l-.36 3.488z" transform="translate(-83 -1484) translate(83 1484)"/>
            </g>
        </g>
    </g>
</svg>
