<svg xmlns="http://www.w3.org/2000/svg" width="32" height="32" viewBox="0 0 32 32">
    <defs>
        <linearGradient id="ivw8y9lzca" x1="6.714%" x2="93.608%" y1="93.485%" y2="6.619%">
            <stop offset="0%" stop-color="#FD5"/>
            <stop offset="50%" stop-color="#FF543E"/>
            <stop offset="100%" stop-color="#C837AB"/>
        </linearGradient>
    </defs>
    <g fill="none" fill-rule="evenodd">
        <g>
            <g>
                <path fill="url(#ivw8y9lzca)" d="M16 0c8.83 0 16 7.17 16 16s-7.17 16-16 16S0 24.83 0 16 7.17 0 16 0" transform="translate(-164 -1484) translate(164 1484)"/>
                <path fill="#FFF" d="M16.795 6l.654.002c1.052.003 1.545.012 2.058.032l.194.007.422.02c1.064.048 1.791.217 2.427.464.658.256 1.216.597 1.772 1.153s.898 1.114 1.153 1.772c.247.636.416 1.363.465 2.427.01.227.019.42.026.612l.008.23c.016.502.023 1.064.025 2.21v1.866c-.002 2.002-.016 2.376-.06 3.328-.048 1.064-.217 1.791-.464 2.427-.255.658-.597 1.216-1.153 1.772s-1.114.898-1.772 1.153c-.636.247-1.363.416-2.427.465l-.422.018-.194.008-.096.004-.195.006c-.493.015-1.063.021-2.188.023h-2.056c-1.8-.003-2.18-.017-3.095-.06-1.064-.048-1.791-.217-2.427-.464-.658-.255-1.216-.597-1.772-1.153s-.897-1.114-1.153-1.772c-.247-.636-.416-1.363-.465-2.427-.038-.838-.053-1.228-.058-2.674L6 16.795v-1.59l.002-.654c.005-1.446.02-1.836.058-2.674.049-1.064.218-1.791.465-2.427.256-.658.597-1.216 1.153-1.772s1.114-.897 1.772-1.153c.636-.247 1.363-.416 2.427-.465.838-.038 1.228-.053 2.674-.058L15.205 6h1.59zm.292 1.803h-1.894c-1.942.001-2.297.014-3.234.057-.975.045-1.504.207-1.857.344-.467.182-.8.399-1.15.748-.35.35-.566.684-.748 1.15-.136.353-.3.882-.344 1.857-.01.234-.02.432-.027.628l-.008.235c-.014.477-.02 1.018-.022 2.091v1.894c.002 1.943.014 2.297.057 3.234.045.975.208 1.504.344 1.857.182.466.399.8.748 1.15.35.35.683.566 1.15.748.353.136.882.3 1.857.344.848.039 1.219.053 2.722.057h2.36c1.74-.003 2.102-.016 3-.057.975-.045 1.504-.208 1.857-.344.466-.182.8-.399 1.15-.749.35-.35.566-.683.748-1.15.136-.352.3-.881.344-1.856.04-.898.054-1.261.057-3v-2.083c-.003-1.738-.016-2.1-.057-2.999-.045-.975-.208-1.504-.344-1.857-.182-.466-.399-.8-.748-1.15-.35-.35-.684-.566-1.15-.748-.353-.137-.882-.3-1.857-.344-.89-.04-1.255-.054-2.954-.057zM16 10.865c2.836 0 5.135 2.299 5.135 5.135S18.836 21.135 16 21.135 10.865 18.836 10.865 16s2.299-5.135 5.135-5.135zm0 1.802c-1.84 0-3.333 1.492-3.333 3.333 0 1.84 1.492 3.333 3.333 3.333 1.84 0 3.333-1.492 3.333-3.333 0-1.841-1.492-3.333-3.333-3.333zm5.338-3.205c.663 0 1.2.537 1.2 1.2 0 .663-.537 1.2-1.2 1.2-.663 0-1.2-.537-1.2-1.2 0-.663.537-1.2 1.2-1.2z" transform="translate(-164 -1484) translate(164 1484)"/>
            </g>
        </g>
    </g>
</svg>
