<?xml version="1.0" encoding="UTF-8"?>
<svg width="32px" height="32px" viewBox="0 0 32 32" version="1.1" xmlns="http://www.w3.org/2000/svg" xmlns:xlink="http://www.w3.org/1999/xlink">
    <title>3B8903EE-B0F7-49B8-A8C5-FEC194648969</title>
    <g id="Page-1" stroke="none" stroke-width="1" fill="none" fill-rule="evenodd">
        <g id="Icon-set" transform="translate(-407.000000, -1484.000000)">
            <g id="Group" transform="translate(407.000000, 1484.000000)">
                <path d="M16,0 C24.8305929,0 32,7.16936542 32,15.9999731 C32,24.8305808 24.8305929,32 16,32 C7.16935338,32 0,24.8305808 0,15.9999731 C0,7.16936542 7.16935338,0 16,0" id="Path" fill="#26A4E2"></path>
                <path d="M12.6579809,18.5450701 L12.3491957,23.0122471 C12.7909841,23.0122471 12.982322,22.8170481 13.211772,22.5826493 L15.2830439,20.5466598 L19.5749248,23.7794431 C20.3620548,24.2306408 20.9166237,23.993042 21.1289621,23.034647 L23.9461409,9.45711689 L23.9469187,9.45631689 C24.1965913,8.25952306 23.5261308,7.79152547 22.7592235,8.08512396 L6.19993692,14.6058904 C5.06979867,15.057088 5.08691019,15.7050847 6.0078212,15.9986832 L10.2413673,17.3530762 L20.0750479,11.0243088 C20.5378368,10.7091104 20.9586247,10.8835095 20.6125053,11.1987079 L12.6579809,18.5450701 Z" id="Path" fill="#FFFFFF"></path>
            </g>
        </g>
    </g>
</svg>