<?xml version="1.0" encoding="UTF-8" standalone="no"?>
<!-- Created with Inkscape (http://www.inkscape.org/) -->

<svg
   xmlns:dc="http://purl.org/dc/elements/1.1/"
   xmlns:cc="http://creativecommons.org/ns#"
   xmlns:rdf="http://www.w3.org/1999/02/22-rdf-syntax-ns#"
   xmlns:svg="http://www.w3.org/2000/svg"
   xmlns="http://www.w3.org/2000/svg"
   xmlns:sodipodi="http://sodipodi.sourceforge.net/DTD/sodipodi-0.dtd"
   xmlns:inkscape="http://www.inkscape.org/namespaces/inkscape"
   width="32"
   height="32"
   id="svg3006"
   version="1.1"
   inkscape:version="0.48.2 r9819"
   sodipodi:docname="New document 1">
  <defs
     id="defs3008" />
  <sodipodi:namedview
     id="base"
     pagecolor="#ffffff"
     bordercolor="#666666"
     borderopacity="1.0"
     inkscape:pageopacity="0.0"
     inkscape:pageshadow="2"
     inkscape:zoom="4.3837282"
     inkscape:cx="32.509884"
     inkscape:cy="17.068537"
     inkscape:document-units="px"
     inkscape:current-layer="layer1"
     showgrid="false"
     inkscape:window-width="1366"
     inkscape:window-height="706"
     inkscape:window-x="-8"
     inkscape:window-y="-8"
     inkscape:window-maximized="1" />
  <metadata
     id="metadata3011">
    <rdf:RDF>
      <cc:Work
         rdf:about="">
        <dc:format>image/svg+xml</dc:format>
        <dc:type
           rdf:resource="http://purl.org/dc/dcmitype/StillImage" />
        <dc:title></dc:title>
      </cc:Work>
    </rdf:RDF>
  </metadata>
  <g
     inkscape:label="Layer 1"
     inkscape:groupmode="layer"
     id="layer1"
     transform="translate(0,-1020.3622)">
    <path
       inkscape:export-ydpi="90"
       inkscape:export-xdpi="90"
       inkscape:export-filename="C:\Users\Sedra452701\facebook.png"
       transform="matrix(0.04419666,0,0,0.04747107,-9.6237277,956.52454)"
       sodipodi:end="6.5388117"
       sodipodi:start="0.25654416"
       d="m 929.85402,1767.5549 a 361.93011,336.96942 0 1 1 0.0841,-0.2992 l -350.16923,-85.2032 z"
       sodipodi:ry="336.96942"
       sodipodi:rx="361.93011"
       sodipodi:cy="1682.0525"
       sodipodi:cx="579.76892"
       id="path2998"
       style="fill:#00d400;fill-opacity:1;stroke:#008000;stroke-width:0;stroke-miterlimit:4;stroke-opacity:1;stroke-dasharray:none"
       sodipodi:type="arc" />
    <path
       inkscape:export-ydpi="90"
       inkscape:export-xdpi="90"
       inkscape:export-filename="C:\Users\Sedra452701\facebook.png"
       sodipodi:nodetypes="csccssccccc"
       inkscape:connector-curvature="0"
       id="path3000"
       d="m 8.6988706,1040.2877 c -1.015406,-1.8298 -1.354989,-4.0393 -0.782739,-6.224 1.177847,-4.4968 5.7725604,-7.1859 10.2625854,-6.0063 4.48711,1.1789 7.172149,5.7756 5.999192,10.2705 m -0.0019,0.01 c -1.177846,4.4968 -5.772561,7.1859 -10.262585,6.0063 -0.542903,-0.1426 -1.059415,-0.3353 -1.5459,-0.5718 l -5.2286624,1.298 1.632769,-4.6188 -0.527647,-1.1285 0.454942,0.9671"
       style="fill:#00d400;fill-opacity:1;stroke:#ffffff;stroke-width:1.12438965;stroke-miterlimit:4;stroke-opacity:1" />
    <path
       inkscape:export-ydpi="90"
       inkscape:export-xdpi="90"
       inkscape:export-filename="C:\Users\Sedra452701\facebook.png"
       sodipodi:nodetypes="cccccccccccccccccccccccccc"
       inkscape:connector-curvature="0"
       id="path3002"
       d="m 15.368766,1031.4266 0.316195,2.6423 c -0.344833,0.096 -0.733746,0.2093 -0.889077,0.3273 -0.166728,0.1409 -0.251059,0.5161 -0.326538,0.5865 l 0.278141,0.8787 0.603348,1.1271 0.597253,0.819 0.66431,0.5806 0.44582,0.253 0.668067,-0.01 0.343716,-0.3149 0.416662,-0.1853 c 0.306415,0.1413 1.007234,0.4761 1.401526,0.8431 0.349681,0.3554 0.974251,0.6452 0.93764,1.0929 0.02836,0.5743 -0.492147,0.8135 -0.919996,1.1092 -0.193291,0.075 -0.613569,0.1635 -0.806833,0.2382 l -0.984129,-0.1344 -0.693358,-0.1856 -0.976608,-0.538 c -0.73427,-0.486 -1.75757,-1.5647 -2.401707,-2.2851 -0.741693,-0.9502 -0.968847,-1.519 -1.358991,-2.4342 -0.276129,-0.569 -0.508016,-1.1947 -0.527437,-2.0932 -0.122821,-0.8426 0.277559,-2.0203 0.946117,-2.4595 l 0.905417,-0.3025 0.613953,0.1347 0.745671,0.3068"
       style="fill:#ffffff;stroke:#000000;stroke-width:0;stroke-linecap:butt;stroke-linejoin:miter;stroke-miterlimit:4;stroke-opacity:1;stroke-dasharray:none" />
  </g>
</svg>
