<?xml version="1.0" encoding="UTF-8"?>
<svg width="32px" height="32px" viewBox="0 0 32 32" version="1.1" xmlns="http://www.w3.org/2000/svg" xmlns:xlink="http://www.w3.org/1999/xlink">
    <title>34550F8C-86BE-4635-8E1F-FD6318363D16</title>
    <g id="Page-1" stroke="none" stroke-width="1" fill="none" fill-rule="evenodd">
        <g id="Icon-set" transform="translate(-650.000000, -1484.000000)">
            <g id="Group" transform="translate(650.000000, 1484.000000)">
                <path d="M16,0 C7.1635,0 0,7.16325 0,16 C0,24.83625 7.1635,32 16,32 C24.8365,32 32,24.83625 32,16 C32,7.16325 24.8365,0 16,0 L16,0 Z" id="Path" fill="#FF0000"></path>
                <path d="M16.2095964,8.96696073 L16.5103395,8.96838716 C17.2302792,8.97263326 18.627869,8.98643308 20.1078405,9.03128251 L20.603399,9.04741179 C21.4316932,9.07630886 22.265,9.11552632 23.00125,9.16875 C23.392,9.21525 24.2445,9.21925 25.00525,10.016 C25.5383611,10.5553333 25.7518673,11.7040494 25.7927315,11.9526612 L25.80025,12.00075 L25.80025,12.00075 C25.80025,12.00075 25.9680955,13.3607396 25.9960697,14.8342542 L26,15.238 L26,15.238 L26,16.7555 L25.9960845,17.1591933 C25.9682153,18.6325503 25.801,19.99275 25.801,19.99275 C25.801,19.99275 25.6055,21.37 25.0055,21.97775 C24.24525,22.7745 23.3925,22.7785 23.0015,22.82525 C20.5710066,23.0008882 17.0818679,23.0287119 16.2057527,23.0329931 L15.9023793,23.032782 C15.1806331,23.0253504 10.67025,22.9738041 9.19975,22.83275 C8.755,22.74925 7.75575,22.77425 6.99475,21.97725 C6.395,21.37 6.19975,19.9925 6.19975,19.9925 C6.19975,19.9925 6,18.37375 6,16.75575 L6,15.23825 C6,13.821625 6.15274219,12.4053828 6.19092773,12.073457 L6.1984898,12.0090626 C6.19915365,12.0035599 6.1995,12.00075 6.1995,12.00075 L6.20701852,11.9526612 C6.24788272,11.7040494 6.46138889,10.5553333 6.9945,10.016 C7.75525,9.219 8.60725,9.21525 8.99825,9.16875 C11.2073947,9.00907895 14.2894273,8.97546399 15.489213,8.96838716 L15.7899261,8.96696073 C15.8164523,8.96686859 15.840581,8.96679487 15.8622101,8.96673589 L16.1373048,8.96673589 C16.1589363,8.96679487 16.1830675,8.96686859 16.2095964,8.96696073 Z M14,12.99985 L14.0007615,18.99985 L20,16.0099798 L14,12.99985 Z" id="Combined-Shape" fill="#FFFFFF"></path>
            </g>
        </g>
    </g>
</svg>